 http://img600.imageshack.us/img600/8153/thormovieposter.jpg

Country.......: USA
Genre.........: Fanatsy, Adventure, Action, Drama
Date release..: 17.04.2011 [World]
Director......: Kenneth Branagh
Writers.......: Ashley Miller, Zack Stentz
Duration......: 105 min.
More..........: http://www.imdb.com/title/tt0800369
Trailer.......: http://www.imdb.com/video/imdb/vi1431476761
Trailer.......:

Pilot :
The powerful but arrogant warrior Thor is cast out of the fantastic realm of Asgard and sent to live amongst humans on Earth, where he soon becomes one of their finest defenders. 

Cats :
Chris Hemsworth   	 ...  	Thor
Natalie Portman 	... 	Jane Foster
Tom Hiddleston 	... 	Loki
Anthony Hopkins 	... 	Odin
Stellan Skarsgard 	... 	Erik Selvig
Kat Dennings 	... 	Darcy Lewis
Clark Gregg 	... 	Agent Coulson
Idris Elba 	... 	Heimdall
Colm Feore 	... 	King Laufey
Ray Stevenson 	... 	Volstagg
Tadanobu Asano 	... 	Hogun
Josh Dallas 	... 	Fandral
Jaimie Alexander 	... 	Sif
Rene Russo 	... 	Frigga
Adriana Barraza 	... 	Isabel Alvarez 

Data Technical :
!!! SAMPLE !!!
Audio.....: Russian
Subtitles.: None
Format                           : AVI
Format/Info                      : Audio Video Interleave
File size                        : 1.36 GiB
Duration                         : 1h 45mn
Overall bit rate                 : 1 844 Kbps
Writing application              : VirtualDubMod 1.5.10.2 (build 2540/release)
Writing library                  : VirtualDub build 32661/release
Video
ID                               : 0
Format                           : MPEG-4 Visual
Format profile                   : Advanced Simple@L5
Format settings, BVOP            : Yes
Format settings, QPel            : No
Format settings, GMC             : No warppoints
Format settings, Matrix          : Default (MPEG)
Codec ID                         : XVID
Codec ID/Hint                    : XviD
Duration                         : 1h 45mn
Bit rate                         : 1 706 Kbps
Width                            : 720 pixels
Height                           : 304 pixels
Display aspect ratio             : 2.35:1
Frame rate                       : 25.000 fps
Color space                      : YUV
Chroma subsampling               : 4:2:0
Bit depth                        : 8 bits
Scan type                        : Progressive
Bits/(Pixel*Frame)               : 0.312
Stream size                      : 1.26 GiB (93%)
Writing library                  : XviD 1.2.0.dev47 (UTC 2006-11-01)
Audio
ID                               : 1
Format                           : MPEG Audio
Format version                   : Version 1
Format profile                   : Layer 3
Mode                             : Joint stereo
Mode extension                   : MS Stereo
Codec ID                         : 55
Codec ID/Hint                    : MP3
Duration                         : 1h 45mn
Bit rate mode                    : Constant
Bit rate                         : 128 Kbps
Channel(s)                       : 2 channels
Sampling rate                    : 48.0 KHz
Stream size                      : 96.4 MiB (7%)
Alignment                        : Aligned on interleaves
Interleave, duration             : 40 ms (1.00 video frame)
Interleave, preload duration     : 504 ms
Writing library                  : LAME3.97

Screen : 
http://img84.imageshack.us/img84/4928/thor2011s1.jpg 
http://img825.imageshack.us/img825/2876/thor2011s2.jpg 
http://img821.imageshack.us/img821/8004/thor2011s3.jpg 
http://img841.imageshack.us/img841/5701/thor2011s4.jpg 
http://img3.imageshack.us/img3/6727/thor2011s5.jpg